<svg width="350" height="503" viewBox="0 0 350 503" fill="none" xmlns="http://www.w3.org/2000/svg">
<g id="drawing">
<rect id="base" x="1" y="481" width="348" height="21" stroke="white" stroke-width="2"/>
<rect id="top" x="1" y="1" width="297.145" height="22.9506" stroke="white" stroke-width="2"/>
<rect id="pole" x="28.9202" y="481.045" width="457.091" height="22.9288" transform="rotate(-90 28.9202 481.045)" stroke="white" stroke-width="2"/>
<rect id="rope" x="198.433" y="22.9545" width="4.98575" height="136.729" fill="white"/>
<rect id="torso" x="197.436" y="159.684" width="4.98575" height="138.725" fill="white"/>
<rect id="left_leg" width="4.98605" height="129.955" transform="matrix(0.965869 -0.25903 0.258608 0.965982 197.436 293.712)" fill="white"/>
<rect id="right_leg" width="4.98605" height="129.955" transform="matrix(0.965869 0.25903 -0.258608 0.965982 197.14 292.421)" fill="white"/>
<rect id="right_arm" width="3.9434" height="102.779" transform="matrix(0.965869 0.25903 -0.258608 0.965982 196.095 161.68)" fill="white"/>
<rect id="left_arm" width="3.9434" height="102.779" transform="matrix(0.965869 -0.25903 0.258608 0.965982 200.427 162.701)" fill="white"/>
<path id="head" d="M247.678 135.685C240.307 155.954 220.4 166.632 203.634 160.525C186.868 154.417 178.477 133.43 185.848 113.161C193.218 92.8916 213.125 82.2132 229.891 88.321C246.657 94.4287 255.049 115.416 247.678 135.685Z" fill="#111C55" stroke="white" stroke-width="5"/>
</g>
</svg>
